{
  "accessors": [
    {
      "bufferView": 2,
      "componentType": 5126,
      "count": 4299,
      "max": [
        0.6287595629692078,
        1.5382241010665894,
        0.7059624195098877
      ],
      "min": [
        -0.6123228073120117,
        -1.5428227186203003,
        -0.6426587700843811
      ],
      "type": "VEC3"
    },
    {
      "bufferView": 2,
      "byteOffset": 51588,
      "componentType": 5126,
      "count": 4299,
      "max": [
        1.0,
        1.0,
        1.0
      ],
      "min": [
        -1.0,
        -1.0,
        -1.0
      ],
      "type": "VEC3"
    },
    {
      "bufferView": 3,
      "componentType": 5126,
      "count": 4299,
      "max": [
        1.0,
        1.0,
        1.0,
        1.0
      ],
      "min": [
        -1.0,
        -1.0,
        -1.0,
        1.0
      ],
      "type": "VEC4"
    },
    {
      "bufferView": 1,
      "componentType": 5126,
      "count": 4299,
      "max": [
        0.9913352131843567,
        0.9925072193145752
      ],
      "min": [
        0.0,
        0.0
      ],
      "type": "VEC2"
    },
    {
      "bufferView": 0,
      "componentType": 5125,
      "count": 7080,
      "type": "SCALAR"
    },
    {
      "bufferView": 2,
      "byteOffset": 103176,
      "componentType": 5126,
      "count": 3272,
      "max": [
        0.0029571056365966797,
        1.550045371055603,
        1.8045120239257813
      ],
      "min": [
        -1.2259794473648071,
        -1.5546436309814453,
        -0.011206328868865967
      ],
      "type": "VEC3"
    },
    {
      "bufferView": 2,
      "byteOffset": 142440,
      "componentType": 5126,
      "count": 3272,
      "max": [
        1.0,
        1.0,
        1.0
      ],
      "min": [
        -1.0,
        -1.0,
        -1.0
      ],
      "type": "VEC3"
    },
    {
      "bufferView": 3,
      "byteOffset": 68784,
      "componentType": 5126,
      "count": 3272,
      "max": [
        1.0,
        1.0,
        1.0,
        1.0
      ],
      "min": [
        -1.0,
        -1.0,
        -0.70710688829422,
        1.0
      ],
      "type": "VEC4"
    },
    {
      "bufferView": 1,
      "byteOffset": 34392,
      "componentType": 5126,
      "count": 3272,
      "max": [
        1.0,
        0.9875216484069824
      ],
      "min": [
        0.12349808216094971,
        0.0
      ],
      "type": "VEC2"
    },
    {
      "bufferView": 0,
      "byteOffset": 28320,
      "componentType": 5125,
      "count": 5952,
      "type": "SCALAR"
    }
  ],
  "asset": {
    "extras": {
      "author": "Killian_Delias (https://sketchfab.com/Killian_Delias)",
      "license": "CC-BY-4.0 (http://creativecommons.org/licenses/by/4.0/)",
      "source": "https://sketchfab.com/3d-models/military-crate-game-ready-with-open-system-819ffa35626044608f497dbb6e405afc",
      "title": "Military crate (game ready with open system)"
    },
    "generator": "Sketchfab-12.68.0",
    "version": "2.0"
  },
  "bufferViews": [
    {
      "buffer": 0,
      "byteLength": 52128,
      "name": "floatBufferViews",
      "target": 34963
    },
    {
      "buffer": 0,
      "byteLength": 60568,
      "byteOffset": 52128,
      "byteStride": 8,
      "name": "floatBufferViews",
      "target": 34962
    },
    {
      "buffer": 0,
      "byteLength": 181704,
      "byteOffset": 112696,
      "byteStride": 12,
      "name": "floatBufferViews",
      "target": 34962
    },
    {
      "buffer": 0,
      "byteLength": 121136,
      "byteOffset": 294400,
      "byteStride": 16,
      "name": "floatBufferViews",
      "target": 34962
    }
  ],
  "buffers": [
    {
      "byteLength": 415536,
      "uri": "scene.bin"
    }
  ],
  "images": [
    {
      "uri": "textures/Scene_-_Root_baseColor.png"
    },
    {
      "uri": "textures/Scene_-_Root_metallicRoughness.png"
    },
    {
      "uri": "textures/Scene_-_Root_normal.png"
    }
  ],
  "materials": [
    {
      "doubleSided": true,
      "name": "Scene_-_Root",
      "normalTexture": {
        "index": 2
      },
      "pbrMetallicRoughness": {
        "baseColorTexture": {
          "index": 0
        },
        "metallicRoughnessTexture": {
          "index": 1
        },
        "roughnessFactor": 0.6
      }
    }
  ],
  "meshes": [
    {
      "name": "caisse__0",
      "primitives": [
        {
          "attributes": {
            "NORMAL": 1,
            "POSITION": 0,
            "TANGENT": 2,
            "TEXCOORD_0": 3
          },
          "indices": 4,
          "material": 0,
          "mode": 4
        }
      ]
    },
    {
      "name": "couvercle__0",
      "primitives": [
        {
          "attributes": {
            "NORMAL": 6,
            "POSITION": 5,
            "TANGENT": 7,
            "TEXCOORD_0": 8
          },
          "indices": 9,
          "material": 0,
          "mode": 4
        }
      ]
    }
  ],
  "nodes": [
    {
      "children": [
        1
      ],
      "matrix": [
        1.0,
        0.0,
        0.0,
        0.0,
        0.0,
        2.220446049250313e-16,
        -1.0,
        0.0,
        0.0,
        1.0,
        2.220446049250313e-16,
        0.0,
        0.0,
        0.0,
        0.0,
        1.0
      ],
      "name": "Sketchfab_model"
    },
    {
      "children": [
        2
      ],
      "matrix": [
        1.0,
        0.0,
        0.0,
        0.0,
        0.0,
        0.0,
        1.0,
        0.0,
        0.0,
        -1.0,
        0.0,
        0.0,
        0.0,
        0.0,
        0.0,
        1.0
      ],
      "name": "0ab619f75730416385849ca9a63e0c23.fbx"
    },
    {
      "children": [
        3,
        5
      ],
      "name": "RootNode"
    },
    {
      "children": [
        4
      ],
      "matrix": [
        132.29762268066406,
        0.0,
        0.0,
        0.0,
        0.0,
        -1.5802986453569568e-05,
        -96.99803924560419,
        0.0,
        0.0,
        104.45461273193222,
        -1.7017816471897263e-05,
        0.0,
        3.158646821975708,
        71.0210189819336,
        -4.949712753295898,
        1.0
      ],
      "name": "caisse"
    },
    {
      "mesh": 0,
      "name": "caisse__0"
    },
    {
      "children": [
        6
      ],
      "matrix": [
        132.29762268066406,
        0.0,
        0.0,
        0.0,
        0.0,
        -1.5802986453569568e-05,
        -96.99803924560419,
        0.0,
        0.0,
        24.31062889099089,
        -3.960704175362973e-06,
        0.0,
        83.97828674316406,
        137.56362915039063,
        -4.94971227645874,
        1.0
      ],
      "name": "couvercle"
    },
    {
      "mesh": 1,
      "name": "couvercle__0"
    }
  ],
  "samplers": [
    {
      "magFilter": 9729,
      "minFilter": 9987,
      "wrapS": 10497,
      "wrapT": 10497
    }
  ],
  "scene": 0,
  "scenes": [
    {
      "name": "Sketchfab_Scene",
      "nodes": [
        0
      ]
    }
  ],
  "textures": [
    {
      "sampler": 0,
      "source": 0
    },
    {
      "sampler": 0,
      "source": 1
    },
    {
      "sampler": 0,
      "source": 2
    }
  ]
}
