{
  "accessors": [
    {
      "bufferView": 2,
      "componentType": 5126,
      "count": 19890,
      "max": [
        10.026410102844238,
        0.003916983958333731,
        10.014869689941406
      ],
      "min": [
        -10.026220321655273,
        -0.003917150665074587,
        -10.014887809753418
      ],
      "type": "VEC3"
    },
    {
      "bufferView": 2,
      "byteOffset": 238680,
      "componentType": 5126,
      "count": 19890,
      "max": [
        0.9479966163635254,
        0.3184879720211029,
        0.9824857115745544
      ],
      "min": [
        -0.9479966163635254,
        -1.0,
        -0.9824637770652771
      ],
      "type": "VEC3"
    },
    {
      "bufferView": 1,
      "componentType": 5126,
      "count": 19890,
      "max": [
        0.9974139332771301,
        0.9999999403953552
      ],
      "min": [
        0.0,
        0.0
      ],
      "type": "VEC2"
    },
    {
      "bufferView": 0,
      "componentType": 5125,
      "count": 31200,
      "type": "SCALAR"
    },
    {
      "bufferView": 2,
      "byteOffset": 477360,
      "componentType": 5126,
      "count": 4,
      "max": [
        10.0,
        0.0,
        10.0
      ],
      "min": [
        -10.0,
        0.0,
        -10.0
      ],
      "type": "VEC3"
    },
    {
      "bufferView": 2,
      "byteOffset": 477408,
      "componentType": 5126,
      "count": 4,
      "max": [
        0.0,
        1.0,
        -0.0
      ],
      "min": [
        0.0,
        1.0,
        -0.0
      ],
      "type": "VEC3"
    },
    {
      "bufferView": 1,
      "byteOffset": 159120,
      "componentType": 5126,
      "count": 4,
      "max": [
        0.9998998641967773,
        0.9999000430107117
      ],
      "min": [
        9.998000314226374e-05,
        9.998000314226374e-05
      ],
      "type": "VEC2"
    },
    {
      "bufferView": 0,
      "byteOffset": 124800,
      "componentType": 5125,
      "count": 6,
      "type": "SCALAR"
    },
    {
      "bufferView": 2,
      "byteOffset": 477456,
      "componentType": 5126,
      "count": 1574,
      "max": [
        9.006784439086914,
        1.0000827312469482,
        10.404937744140625
      ],
      "min": [
        -11.04588508605957,
        -1.0000827312469482,
        -9.598936080932617
      ],
      "type": "VEC3"
    },
    {
      "bufferView": 2,
      "byteOffset": 496344,
      "componentType": 5126,
      "count": 1574,
      "max": [
        1.0,
        0.984660267829895,
        1.0
      ],
      "min": [
        -1.0,
        -0.9958814978599548,
        -1.0
      ],
      "type": "VEC3"
    },
    {
      "bufferView": 1,
      "byteOffset": 159152,
      "componentType": 5126,
      "count": 1574,
      "max": [
        0.9841153621673584,
        0.9912948608398438
      ],
      "min": [
        0.008704900741577148,
        0.00870513916015625
      ],
      "type": "VEC2"
    },
    {
      "bufferView": 0,
      "byteOffset": 124824,
      "componentType": 5125,
      "count": 2238,
      "type": "SCALAR"
    }
  ],
  "asset": {
    "extras": {
      "author": "Huuxloc (https://sketchfab.com/rjh41)",
      "license": "CC-BY-4.0 (http://creativecommons.org/licenses/by/4.0/)",
      "source": "https://sketchfab.com/3d-models/backrooms-again-3a7c1800683b4d1392cf87f55b297e33",
      "title": "BackRooms Again"
    },
    "generator": "Sketchfab-12.97.0",
    "version": "2.0"
  },
  "bufferViews": [
    {
      "buffer": 0,
      "byteLength": 133776,
      "name": "floatBufferViews",
      "target": 34963
    },
    {
      "buffer": 0,
      "byteLength": 171744,
      "byteOffset": 133776,
      "byteStride": 8,
      "name": "floatBufferViews",
      "target": 34962
    },
    {
      "buffer": 0,
      "byteLength": 515232,
      "byteOffset": 305520,
      "byteStride": 12,
      "name": "floatBufferViews",
      "target": 34962
    }
  ],
  "buffers": [
    {
      "byteLength": 820752,
      "uri": "scene.bin"
    }
  ],
  "extensionsUsed": [
    "KHR_materials_unlit"
  ],
  "images": [
    {
      "uri": "textures/RoofBaked_baseColor.png"
    },
    {
      "uri": "textures/CarpetBaked_baseColor.png"
    },
    {
      "uri": "textures/WallsBaked_baseColor.png"
    }
  ],
  "materials": [
    {
      "doubleSided": true,
      "extensions": {
        "KHR_materials_unlit": {}
      },
      "name": "RoofBaked",
      "pbrMetallicRoughness": {
        "baseColorTexture": {
          "index": 0
        },
        "metallicFactor": 0.0
      }
    },
    {
      "doubleSided": true,
      "extensions": {
        "KHR_materials_unlit": {}
      },
      "name": "CarpetBaked",
      "pbrMetallicRoughness": {
        "baseColorTexture": {
          "index": 1
        },
        "metallicFactor": 0.0
      }
    },
    {
      "doubleSided": true,
      "extensions": {
        "KHR_materials_unlit": {}
      },
      "name": "WallsBaked",
      "pbrMetallicRoughness": {
        "baseColorTexture": {
          "index": 2
        },
        "metallicFactor": 0.0
      }
    }
  ],
  "meshes": [
    {
      "name": "Object_0",
      "primitives": [
        {
          "attributes": {
            "NORMAL": 1,
            "POSITION": 0,
            "TEXCOORD_0": 2
          },
          "indices": 3,
          "material": 0,
          "mode": 4
        }
      ]
    },
    {
      "name": "Object_1",
      "primitives": [
        {
          "attributes": {
            "NORMAL": 5,
            "POSITION": 4,
            "TEXCOORD_0": 6
          },
          "indices": 7,
          "material": 1,
          "mode": 4
        }
      ]
    },
    {
      "name": "Object_2",
      "primitives": [
        {
          "attributes": {
            "NORMAL": 9,
            "POSITION": 8,
            "TEXCOORD_0": 10
          },
          "indices": 11,
          "material": 2,
          "mode": 4
        }
      ]
    }
  ],
  "nodes": [
    {
      "children": [
        1
      ],
      "matrix": [
        1.3333333730697632,
        0.0,
        0.0,
        0.0,
        0.0,
        2.9605948205663494e-16,
        -1.3333333730697632,
        0.0,
        0.0,
        1.3333333730697632,
        2.9605948205663494e-16,
        0.0,
        0.0,
        0.0,
        0.0,
        1.0
      ],
      "name": "Sketchfab_model"
    },
    {
      "children": [
        2
      ],
      "name": "root"
    },
    {
      "children": [
        3,
        5,
        7
      ],
      "matrix": [
        1.0,
        0.0,
        0.0,
        0.0,
        0.0,
        2.220446049250313e-16,
        1.0,
        0.0,
        0.0,
        -1.0,
        2.220446049250313e-16,
        0.0,
        0.0,
        0.0,
        0.0,
        1.0
      ],
      "name": "GLTF_SceneRootNode"
    },
    {
      "children": [
        4
      ],
      "matrix": [
        1.0,
        0.0,
        0.0,
        0.0,
        0.0,
        1.0,
        0.0,
        0.0,
        0.0,
        0.0,
        1.0,
        0.0,
        0.026220321655273438,
        1.9960830211639404,
        -0.0133819580078125,
        1.0
      ],
      "name": "Ceiling.001_0"
    },
    {
      "mesh": 0,
      "name": "Object_4"
    },
    {
      "children": [
        6
      ],
      "name": "Carpet.001_1"
    },
    {
      "mesh": 1,
      "name": "Object_6"
    },
    {
      "children": [
        8
      ],
      "matrix": [
        1.0,
        0.0,
        0.0,
        0.0,
        0.0,
        1.0,
        0.0,
        0.0,
        0.0,
        0.0,
        1.0,
        0.0,
        0.9932160377502441,
        1.0,
        -0.40493783354759216,
        1.0
      ],
      "name": "OuterWalls.002_2"
    },
    {
      "mesh": 2,
      "name": "Object_8"
    }
  ],
  "samplers": [
    {
      "magFilter": 9729,
      "minFilter": 9987,
      "wrapS": 10497,
      "wrapT": 10497
    }
  ],
  "scene": 0,
  "scenes": [
    {
      "name": "Sketchfab_Scene",
      "nodes": [
        0
      ]
    }
  ],
  "textures": [
    {
      "sampler": 0,
      "source": 0
    },
    {
      "sampler": 0,
      "source": 1
    },
    {
      "sampler": 0,
      "source": 2
    }
  ]
}
