{
  "accessors": [
    {
      "bufferView": 2,
      "componentType": 5126,
      "count": 244,
      "max": [
        -37.64405059814453,
        15.811422348022461,
        12.74481201171875
      ],
      "min": [
        -40.03615188598633,
        13.794065475463867,
        -12.74481201171875
      ],
      "type": "VEC3"
    },
    {
      "bufferView": 2,
      "byteOffset": 2928,
      "componentType": 5126,
      "count": 244,
      "max": [
        0.0,
        1.0,
        1.0
      ],
      "min": [
        -1.0,
        -1.0,
        -1.0
      ],
      "type": "VEC3"
    },
    {
      "bufferView": 1,
      "componentType": 5126,
      "count": 244,
      "max": [
        0.0,
        0.0
      ],
      "min": [
        0.0,
        0.0
      ],
      "type": "VEC2"
    },
    {
      "bufferView": 0,
      "componentType": 5125,
      "count": 720,
      "type": "SCALAR"
    },
    {
      "bufferView": 2,
      "byteOffset": 5856,
      "componentType": 5126,
      "count": 244,
      "max": [
        36.664283752441406,
        8.701446533203125,
        14.105178833007813
      ],
      "min": [
        32.77156066894531,
        6.684089660644531,
        -14.105178833007813
      ],
      "type": "VEC3"
    },
    {
      "bufferView": 2,
      "byteOffset": 8784,
      "componentType": 5126,
      "count": 244,
      "max": [
        0.9813446998596191,
        0.9999921917915344,
        0.9876410961151123
      ],
      "min": [
        -0.15673409402370453,
        -0.9999921917915344,
        -0.9876410365104675
      ],
      "type": "VEC3"
    },
    {
      "bufferView": 1,
      "byteOffset": 1952,
      "componentType": 5126,
      "count": 244,
      "max": [
        0.0,
        0.0
      ],
      "min": [
        0.0,
        0.0
      ],
      "type": "VEC2"
    },
    {
      "bufferView": 0,
      "byteOffset": 2880,
      "componentType": 5125,
      "count": 720,
      "type": "SCALAR"
    },
    {
      "bufferView": 2,
      "byteOffset": 11712,
      "componentType": 5126,
      "count": 5011,
      "max": [
        41.3033561706543,
        22.49620819091797,
        16.002092361450195
      ],
      "min": [
        -42.054473876953125,
        -0.1548309326171875,
        -15.97507095336914
      ],
      "type": "VEC3"
    },
    {
      "bufferView": 2,
      "byteOffset": 71844,
      "componentType": 5126,
      "count": 5011,
      "max": [
        1.0,
        1.0,
        1.0
      ],
      "min": [
        -1.0,
        -1.0,
        -1.0
      ],
      "type": "VEC3"
    },
    {
      "bufferView": 3,
      "componentType": 5126,
      "count": 5011,
      "max": [
        1.0,
        1.0,
        1.0,
        1.0
      ],
      "min": [
        -1.0,
        -0.9995713233947754,
        -1.0,
        -1.0
      ],
      "type": "VEC4"
    },
    {
      "bufferView": 1,
      "byteOffset": 3904,
      "componentType": 5126,
      "count": 5011,
      "max": [
        0.9995005130767822,
        0.9988243579864502
      ],
      "min": [
        0.0004995005438104272,
        0.0004995005438104272
      ],
      "type": "VEC2"
    },
    {
      "bufferView": 0,
      "byteOffset": 5760,
      "componentType": 5125,
      "count": 14406,
      "type": "SCALAR"
    },
    {
      "bufferView": 2,
      "byteOffset": 131976,
      "componentType": 5126,
      "count": 1189,
      "max": [
        41.3033561706543,
        12.037500381469727,
        17.117822647094727
      ],
      "min": [
        -41.30430221557617,
        -0.1548309326171875,
        -17.117822647094727
      ],
      "type": "VEC3"
    },
    {
      "bufferView": 2,
      "byteOffset": 146244,
      "componentType": 5126,
      "count": 1189,
      "max": [
        1.0,
        1.0,
        0.9997287392616272
      ],
      "min": [
        -0.9886443018913269,
        -1.0,
        -0.999728798866272
      ],
      "type": "VEC3"
    },
    {
      "bufferView": 3,
      "byteOffset": 80176,
      "componentType": 5126,
      "count": 1189,
      "max": [
        0.9990496635437012,
        1.0,
        0.9999999403953552,
        1.0
      ],
      "min": [
        -1.0,
        -0.9806942939758301,
        -0.9999999403953552,
        -1.0
      ],
      "type": "VEC4"
    },
    {
      "bufferView": 1,
      "byteOffset": 43992,
      "componentType": 5126,
      "count": 1189,
      "max": [
        0.9723747372627258,
        0.8291163444519043
      ],
      "min": [
        0.1782579869031906,
        0.002125496044754982
      ],
      "type": "VEC2"
    },
    {
      "bufferView": 0,
      "byteOffset": 63384,
      "componentType": 5125,
      "count": 4110,
      "type": "SCALAR"
    },
    {
      "bufferView": 2,
      "byteOffset": 160512,
      "componentType": 5126,
      "count": 150,
      "max": [
        19.761871337890625,
        19.47059440612793,
        15.467391967773438
      ],
      "min": [
        -10.293216705322266,
        7.607353210449219,
        -15.467391967773438
      ],
      "type": "VEC3"
    },
    {
      "bufferView": 2,
      "byteOffset": 162312,
      "componentType": 5126,
      "count": 150,
      "max": [
        0.5164756774902344,
        0.9570675492286682,
        0.9987032413482666
      ],
      "min": [
        -0.10699611902236938,
        0.043841276317834854,
        -0.9987032413482666
      ],
      "type": "VEC3"
    },
    {
      "bufferView": 3,
      "byteOffset": 99200,
      "componentType": 5126,
      "count": 150,
      "max": [
        0.9991723895072937,
        0.9990382194519043,
        0.3337565064430237,
        1.0
      ],
      "min": [
        -0.9570675492286682,
        -0.004422140773385763,
        -0.33375653624534607,
        -1.0
      ],
      "type": "VEC4"
    },
    {
      "bufferView": 1,
      "byteOffset": 53504,
      "componentType": 5126,
      "count": 150,
      "max": [
        0.9705346822738647,
        0.7011103630065918
      ],
      "min": [
        0.5826113820075989,
        0.09343280643224716
      ],
      "type": "VEC2"
    },
    {
      "bufferView": 0,
      "byteOffset": 79824,
      "componentType": 5125,
      "count": 666,
      "type": "SCALAR"
    },
    {
      "bufferView": 2,
      "byteOffset": 164112,
      "componentType": 5126,
      "count": 190,
      "max": [
        42.05447006225586,
        3.9005203247070313,
        14.797489166259766
      ],
      "min": [
        34.32133865356445,
        0.6298408508300781,
        -14.797489166259766
      ],
      "type": "VEC3"
    },
    {
      "bufferView": 2,
      "byteOffset": 166392,
      "componentType": 5126,
      "count": 190,
      "max": [
        0.952929675579071,
        1.0,
        0.9956254363059998
      ],
      "min": [
        -0.9989832043647766,
        -1.0,
        -0.9956254363059998
      ],
      "type": "VEC3"
    },
    {
      "bufferView": 3,
      "byteOffset": 101600,
      "componentType": 5126,
      "count": 190,
      "max": [
        1.0,
        0.9934467673301697,
        0.9999292492866516,
        1.0
      ],
      "min": [
        -1.0,
        -0.4630792438983917,
        -0.9999291896820068,
        -1.0
      ],
      "type": "VEC4"
    },
    {
      "bufferView": 1,
      "byteOffset": 54704,
      "componentType": 5126,
      "count": 190,
      "max": [
        0.9613998532295227,
        0.484423965215683
      ],
      "min": [
        0.9049180746078491,
        0.3129705786705017
      ],
      "type": "VEC2"
    },
    {
      "bufferView": 0,
      "byteOffset": 82488,
      "componentType": 5125,
      "count": 588,
      "type": "SCALAR"
    }
  ],
  "asset": {
    "extras": {
      "author": "Claymore (https://sketchfab.com/SideStracted)",
      "license": "CC-BY-4.0 (http://creativecommons.org/licenses/by/4.0/)",
      "source": "https://sketchfab.com/3d-models/hover-car-7a195c37fab646a29212515fa7e2d6b4",
      "title": "Hover Car"
    },
    "generator": "Sketchfab-12.67.0",
    "version": "2.0"
  },
  "bufferViews": [
    {
      "buffer": 0,
      "byteLength": 84840,
      "name": "floatBufferViews",
      "target": 34963
    },
    {
      "buffer": 0,
      "byteLength": 56224,
      "byteOffset": 84840,
      "byteStride": 8,
      "name": "floatBufferViews",
      "target": 34962
    },
    {
      "buffer": 0,
      "byteLength": 168672,
      "byteOffset": 141064,
      "byteStride": 12,
      "name": "floatBufferViews",
      "target": 34962
    },
    {
      "buffer": 0,
      "byteLength": 104640,
      "byteOffset": 309736,
      "byteStride": 16,
      "name": "floatBufferViews",
      "target": 34962
    }
  ],
  "buffers": [
    {
      "byteLength": 414376,
      "uri": "scene.bin"
    }
  ],
  "images": [
    {
      "uri": "textures/Body_baseColor.png"
    },
    {
      "uri": "textures/Body_metallicRoughness.png"
    },
    {
      "uri": "textures/Body_normal.png"
    },
    {
      "uri": "textures/Bumper_baseColor.png"
    },
    {
      "uri": "textures/Bumper_metallicRoughness.png"
    },
    {
      "uri": "textures/Bumper_normal.png"
    },
    {
      "uri": "textures/Glass_baseColor.png"
    },
    {
      "uri": "textures/Glass_metallicRoughness.png"
    },
    {
      "uri": "textures/Glass_normal.png"
    },
    {
      "uri": "textures/Chrome_Bar_baseColor.png"
    },
    {
      "uri": "textures/Chrome_Bar_metallicRoughness.png"
    },
    {
      "uri": "textures/Chrome_Bar_normal.png"
    }
  ],
  "materials": [
    {
      "doubleSided": true,
      "emissiveFactor": [
        1.0,
        0.0,
        0.0
      ],
      "name": "BrakeLight",
      "pbrMetallicRoughness": {
        "baseColorFactor": [
          1.0,
          0.0,
          0.0,
          1.0
        ],
        "metallicFactor": 0.0,
        "roughnessFactor": 0.9207483815999999
      }
    },
    {
      "doubleSided": true,
      "emissiveFactor": [
        1.0,
        1.0,
        1.0
      ],
      "name": "Light",
      "pbrMetallicRoughness": {
        "metallicFactor": 0.0,
        "roughnessFactor": 0.9207483815999999
      }
    },
    {
      "doubleSided": true,
      "name": "Body",
      "normalTexture": {
        "index": 2
      },
      "occlusionTexture": {
        "index": 1
      },
      "pbrMetallicRoughness": {
        "baseColorTexture": {
          "index": 0
        },
        "metallicRoughnessTexture": {
          "index": 1
        },
        "roughnessFactor": 0.6036585365853658
      }
    },
    {
      "doubleSided": true,
      "name": "Bumper",
      "normalTexture": {
        "index": 5
      },
      "occlusionTexture": {
        "index": 4
      },
      "pbrMetallicRoughness": {
        "baseColorTexture": {
          "index": 3
        },
        "metallicRoughnessTexture": {
          "index": 4
        },
        "roughnessFactor": 0.6341463414634146
      }
    },
    {
      "doubleSided": true,
      "name": "Glass",
      "normalTexture": {
        "index": 8
      },
      "occlusionTexture": {
        "index": 7
      },
      "pbrMetallicRoughness": {
        "baseColorTexture": {
          "index": 6
        },
        "metallicRoughnessTexture": {
          "index": 7
        },
        "roughnessFactor": 0.524390243902439
      }
    },
    {
      "doubleSided": true,
      "name": "Chrome_Bar",
      "normalTexture": {
        "index": 11
      },
      "occlusionTexture": {
        "index": 10
      },
      "pbrMetallicRoughness": {
        "baseColorTexture": {
          "index": 9
        },
        "metallicRoughnessTexture": {
          "index": 10
        }
      }
    }
  ],
  "meshes": [
    {
      "name": "pCylinder10_BrakeLight_0",
      "primitives": [
        {
          "attributes": {
            "NORMAL": 1,
            "POSITION": 0,
            "TEXCOORD_0": 2
          },
          "indices": 3,
          "material": 0,
          "mode": 4
        }
      ]
    },
    {
      "name": "pCylinder10_Light_0",
      "primitives": [
        {
          "attributes": {
            "NORMAL": 5,
            "POSITION": 4,
            "TEXCOORD_0": 6
          },
          "indices": 7,
          "material": 1,
          "mode": 4
        }
      ]
    },
    {
      "name": "pCylinder10_Body_0",
      "primitives": [
        {
          "attributes": {
            "NORMAL": 9,
            "POSITION": 8,
            "TANGENT": 10,
            "TEXCOORD_0": 11
          },
          "indices": 12,
          "material": 2,
          "mode": 4
        }
      ]
    },
    {
      "name": "pCylinder10_Bumper_0",
      "primitives": [
        {
          "attributes": {
            "NORMAL": 14,
            "POSITION": 13,
            "TANGENT": 15,
            "TEXCOORD_0": 16
          },
          "indices": 17,
          "material": 3,
          "mode": 4
        }
      ]
    },
    {
      "name": "pCylinder10_Glass_0",
      "primitives": [
        {
          "attributes": {
            "NORMAL": 19,
            "POSITION": 18,
            "TANGENT": 20,
            "TEXCOORD_0": 21
          },
          "indices": 22,
          "material": 4,
          "mode": 4
        }
      ]
    },
    {
      "name": "pCylinder10_Chrome_Bar_0",
      "primitives": [
        {
          "attributes": {
            "NORMAL": 24,
            "POSITION": 23,
            "TANGENT": 25,
            "TEXCOORD_0": 26
          },
          "indices": 27,
          "material": 5,
          "mode": 4
        }
      ]
    }
  ],
  "nodes": [
    {
      "children": [
        1
      ],
      "matrix": [
        0.06142374873161316,
        0.0,
        0.0,
        0.0,
        0.0,
        1.3638812020125437e-17,
        -0.06142374873161316,
        0.0,
        0.0,
        0.06142374873161316,
        1.3638812020125437e-17,
        0.0,
        0.0,
        0.0,
        0.0,
        1.0
      ],
      "name": "Sketchfab_model"
    },
    {
      "children": [
        2
      ],
      "matrix": [
        1.0,
        0.0,
        0.0,
        0.0,
        0.0,
        0.0,
        1.0,
        0.0,
        0.0,
        -1.0,
        0.0,
        0.0,
        0.0,
        0.0,
        0.0,
        1.0
      ],
      "name": "f1f9e24508b24accad06fcb16ea78c56.fbx"
    },
    {
      "children": [
        3
      ],
      "name": "RootNode"
    },
    {
      "children": [
        4,
        5,
        6,
        7,
        8,
        9
      ],
      "name": "pCylinder10"
    },
    {
      "mesh": 0,
      "name": "pCylinder10_BrakeLight_0"
    },
    {
      "mesh": 1,
      "name": "pCylinder10_Light_0"
    },
    {
      "mesh": 2,
      "name": "pCylinder10_Body_0"
    },
    {
      "mesh": 3,
      "name": "pCylinder10_Bumper_0"
    },
    {
      "mesh": 4,
      "name": "pCylinder10_Glass_0"
    },
    {
      "mesh": 5,
      "name": "pCylinder10_Chrome_Bar_0"
    }
  ],
  "samplers": [
    {
      "magFilter": 9729,
      "minFilter": 9987,
      "wrapS": 10497,
      "wrapT": 10497
    }
  ],
  "scene": 0,
  "scenes": [
    {
      "name": "Sketchfab_Scene",
      "nodes": [
        0
      ]
    }
  ],
  "textures": [
    {
      "sampler": 0,
      "source": 0
    },
    {
      "sampler": 0,
      "source": 1
    },
    {
      "sampler": 0,
      "source": 2
    },
    {
      "sampler": 0,
      "source": 3
    },
    {
      "sampler": 0,
      "source": 4
    },
    {
      "sampler": 0,
      "source": 5
    },
    {
      "sampler": 0,
      "source": 6
    },
    {
      "sampler": 0,
      "source": 7
    },
    {
      "sampler": 0,
      "source": 8
    },
    {
      "sampler": 0,
      "source": 9
    },
    {
      "sampler": 0,
      "source": 10
    },
    {
      "sampler": 0,
      "source": 11
    }
  ]
}
